<?xml version="1.0" encoding="utf-8"?>
<!-- Generator: Adobe Illustrator 22.0.1, SVG Export Plug-In . SVG Version: 6.00 Build 0)  -->
<svg version="1.1" baseProfile="basic" id="Camada_1"
	 xmlns="http://www.w3.org/2000/svg" xmlns:xlink="http://www.w3.org/1999/xlink" x="0px" y="0px" viewBox="0 0 28.5 60.6"
	 xml:space="preserve">
<style type="text/css">
	.st0{clip-path:url(#SVGID_2_);fill:#333333;}
</style>
<g>
	<defs>
		<rect id="SVGID_1_" x="5" y="4" width="18.4" height="52.5"/>
	</defs>
	<clipPath id="SVGID_2_">
		<use xlink:href="#SVGID_1_"  style="overflow:visible;"/>
	</clipPath>
	<path class="st0" d="M19.3,56.6h-2.7c-5.9-9.5-3.3-16-1-21.9c1.1-2.8,2.1-5.4,2.1-8c0-7.1-4.4-11.7-6.9-13.9v23.1h0v11.3
		c-1.8,0.9-3.7,1.6-5.8,2v-44V4.7V4c10.5,2.1,18.4,11.4,18.4,22.6c0,6.2-2.4,11.8-6.4,15.9c0.2-0.9,0.4-1.7,0.6-2.5
		c2.9-3.7,4.6-8.4,4.6-13.4c0-10.1-6.8-18.6-16.1-21.1v42.2c0.8-0.2,1.6-0.5,2.3-0.8V35.8V8.5l1.7,1c0.4,0.2,9.8,6,9.8,17.1
		c0,3.1-1.1,5.9-2.3,8.9C15.4,41.4,13,47.4,19.3,56.6"/>
</g>
<g>
</g>
<g>
</g>
<g>
</g>
<g>
</g>
<g>
</g>
<g>
</g>
</svg>
