<?xml version="1.0" encoding="utf-8"?>
<!-- Generator: Adobe Illustrator 22.0.1, SVG Export Plug-In . SVG Version: 6.00 Build 0)  -->
<svg version="1.1" id="marcas" xmlns="http://www.w3.org/2000/svg" xmlns:xlink="http://www.w3.org/1999/xlink" x="0px" y="0px"
	 viewBox="0 0 169.9 64.7" style="enable-background:new 0 0 169.9 64.7;" xml:space="preserve">
<style type="text/css">
	.st0{fill:url(#SVGID_1_);}
	.st1{fill:url(#SVGID_2_);}
	.st2{fill:#333333;}
</style>
<g>
	<linearGradient id="SVGID_1_" gradientUnits="userSpaceOnUse" x1="8.2338" y1="38.9866" x2="22.8493" y2="24.3712">
		<stop  offset="0" style="stop-color:#5F2890;stop-opacity:0"/>
		<stop  offset="1" style="stop-color:#5F2890"/>
	</linearGradient>
	<path class="st0" d="M5.7,53V8.8c0,0,11.4,6.8,11.4,19.9c0,10.8-12.1,18.7-1.4,35.7"/>
	<linearGradient id="SVGID_2_" gradientUnits="userSpaceOnUse" x1="-3.0204" y1="34.2777" x2="9.3941" y2="21.8632">
		<stop  offset="0.2" style="stop-color:#8DBEC7;stop-opacity:0"/>
		<stop  offset="1" style="stop-color:#8DBEC7"/>
	</linearGradient>
	<path class="st1" d="M5.7,8.8c0,0,11.4,6.8,11.4,19.9c0,7-5.1,13.1-5.8,21.2c6.9-5,11.4-13,11.4-22.1C22.7,14.5,13,3.4,0,0.9v53.9
		c2-0.4,3.9-1,5.7-1.8V8.8z"/>
	<path class="st2" d="M17.6,64.7h-3.4C6.9,53,10.1,45,13,37.7c1.3-3.4,2.6-6.6,2.6-9.9c0-8.7-5.4-14.5-8.5-17.1v28.4h0v14
		c-2.2,1.1-4.6,2-7.1,2.5V1.5V0.9V0c13,2.6,22.7,14.1,22.7,27.8c0,7.6-3,14.5-7.9,19.6c0.2-1.1,0.5-2.1,0.8-3.1
		c3.6-4.6,5.7-10.3,5.7-16.6c0-12.4-8.4-22.9-19.9-26v52c1-0.3,1.9-0.6,2.8-1V39.2h0V5.4l2.1,1.3c0.5,0.3,12,7.3,12,21.1
		c0,3.8-1.4,7.3-2.8,10.9C12.8,46,9.8,53.4,17.6,64.7z M45.6,47.4c0.2,0.4,0.5,0.6,0.9,0.6c0.2,0,0.4-0.1,0.5-0.2
		c0.4-0.2,0.5-0.6,0.5-1c0-0.2,0-0.4-0.1-0.5l-5-8.8c3.1-0.5,5-2.8,5-6c0-1.9-0.6-3.5-1.8-4.6c-1.1-1.1-2.7-1.7-4.5-1.7h-5.7
		c-0.8,0-1.5,0.7-1.5,1.5v20.2c0,0.6,0.5,1.1,1.1,1.1c0.6,0,1.1-0.5,1.1-1.1v-9.2h3.8L45.6,47.4z M36.3,35.5v-8.2h4.9
		c1.2,0,2.2,0.4,3,1.1c0.7,0.7,1.1,1.8,1.1,3.1c0,1.2-0.4,2.3-1.1,2.9c-0.7,0.7-1.7,1-3,1H36.3z M61.2,37.5c0-3.7-2.5-6.2-6.2-6.2
		c-3.7,0-6.2,2.5-6.2,6.2v4.3c0,3.7,2.5,6.2,6.2,6.2c3.7,0,6.2-2.5,6.2-6.2V37.5z M59,41.9c0,2.5-1.5,4-4,4c-2.5,0-4-1.5-4-4v-4.6
		c0-2.5,1.5-4,4-4c2.5,0,4,1.5,4,4V41.9z M75.1,36.1c0-3.3-2.6-4.9-5.6-4.9c-1.6,0-3.2,0.4-4.7,1.3c-0.4,0.2-0.5,0.6-0.5,1
		c0,0.6,0.5,1,1.1,1c0.2,0,0.4-0.1,0.5-0.2c1.2-0.7,2.4-1.1,3.7-1.1c2,0,3.4,1,3.4,2.9v2h-3.7c-2,0-3.5,0.4-4.5,1.3
		c-0.9,0.9-1.4,2.1-1.4,3.6s0.5,2.7,1.4,3.6c1,0.9,2.5,1.4,4.5,1.4c1.7,0,3.3-0.3,4.8-0.8c0.6-0.2,1-0.8,1-1.4V36.1z M72.9,45.4
		c-1.2,0.4-2.4,0.5-3.7,0.5c-3.3,0-3.7-1.6-3.7-2.9c0-1.3,0.4-2.8,3.7-2.8h3.7V45.4z M78,46.9c0,0.6,0.5,1.1,1.1,1.1
		c0.6,0,1.1-0.5,1.1-1.1V25.9c0-0.6-0.5-1.1-1.1-1.1c-0.6,0-1.1,0.5-1.1,1.1V46.9z M84.4,27.8c0.8,0,1.4-0.7,1.4-1.5
		c0-0.8-0.6-1.4-1.4-1.4c-0.8,0-1.4,0.6-1.4,1.4C82.9,27.1,83.6,27.8,84.4,27.8z M83.3,46.9c0,0.6,0.5,1.1,1.1,1.1
		c0.6,0,1.1-0.5,1.1-1.1V32.4c0-0.6-0.5-1.1-1.1-1.1c-0.6,0-1.1,0.5-1.1,1.1V46.9z M94.4,40.9c1.3,0.6,2,1.3,2,2.6
		c0,1.5-1.3,2.4-2.9,2.4c-1.3,0-2.4-0.4-3.4-0.8C90,45.1,89.8,45,89.7,45c-0.6,0-1.1,0.4-1.1,1c0,0.4,0.2,0.8,0.6,1
		c1.2,0.6,2.6,0.9,4.2,0.9c2.9,0,5.1-2.1,5.1-4.7c0-2-1.3-3.5-3.2-4.3l-3-1.2c-0.7-0.3-1.6-0.9-1.6-2.2c0-1.6,1.5-2.2,2.8-2.2
		c1.2,0,2.4,0.3,3.3,0.7c0.2,0.1,0.3,0.1,0.4,0.1c0.6,0,1.1-0.4,1.1-1c0-0.4-0.3-0.8-0.7-1c-1.1-0.5-2.3-0.8-3.9-0.8
		c-2.9,0-5.2,1.7-5.2,4.4c0,2.3,1.3,3.4,2.8,4.1L94.4,40.9z M106.6,47.7c2.3,0,4.2-0.7,5.6-2.1c1.4-1.3,2.1-3.3,2.1-5.6v-7.1
		c0-2.3-0.7-4.2-2.1-5.6c-1.4-1.4-3.3-2.1-5.6-2.1h-4.3c-0.6,0-1,0.4-1,1v20.4c0,0.6,0.4,1,1,1H106.6z M113.1,40
		c0,2-0.6,3.6-1.7,4.7c-1.1,1.1-2.8,1.8-4.7,1.8h-4v-20h4c2,0,3.6,0.6,4.8,1.8c1.1,1.1,1.7,2.8,1.7,4.7V40z M126.8,39.8
		c0.6,0,1-0.4,1-1v-1.9c0-1.6-0.5-3-1.5-3.9c-1-1-2.3-1.5-3.9-1.5c-1.6,0-3,0.5-3.9,1.5c-1,1-1.5,2.3-1.5,3.9v5.7
		c0,1.6,0.5,3,1.5,3.9c1,1,2.3,1.5,3.9,1.5c1.5,0,3-0.4,4.4-1c0.2-0.1,0.4-0.3,0.4-0.6c0-0.3-0.3-0.6-0.6-0.6c-0.1,0-0.2,0-0.3,0.1
		c-1.3,0.5-2.5,0.9-3.9,0.9c-2.6,0-4.1-1.7-4.1-4.2v-2.8H126.8z M126.6,38.7h-8.3v-1.9c0-2.6,1.6-4.1,4.1-4.1s4.1,1.6,4.1,4.1V38.7z
		 M130.8,47.3c0,0.4,0.3,0.6,0.6,0.6c0.4,0,0.6-0.3,0.6-0.6V35.4c0-1.8,1.1-2.8,2.5-2.8c1.3,0,1.7,0.3,2.1,0.3
		c0.3,0,0.6-0.3,0.6-0.5c0-0.4-0.2-0.6-0.5-0.6c-0.7-0.2-1.4-0.2-2.2-0.2c-2.1,0-3.7,1.5-3.7,4V47.3z M156.2,47.3
		c0,0.4,0.3,0.6,0.6,0.6c0.3,0,0.6-0.3,0.6-0.6V36.5c0-2.9-2.2-5-5-5c-1.7,0-3.3,0.5-4.4,1.6c-0.9-1.1-2.4-1.6-3.9-1.6
		c-1.7,0-3.3,0.3-4.8,0.9c-0.4,0.2-0.7,0.5-0.7,1v14c0,0.4,0.3,0.6,0.6,0.6c0.4,0,0.6-0.3,0.6-0.6V33.4c1.3-0.5,2.7-0.7,4.2-0.7
		c1.9,0,3.3,1.1,3.3,2.7v12c0,0.4,0.3,0.6,0.6,0.6c0.4,0,0.6-0.3,0.6-0.6V34.1c1-1,2.4-1.5,3.8-1.5c2.1,0,3.8,1.7,3.8,3.8V47.3z
		 M168.6,38.6h-3.8c-1.9,0-3.4,0.4-4.4,1.3c-0.9,0.8-1.3,1.9-1.3,3.4c0,1.4,0.4,2.6,1.3,3.4c1,0.9,2.4,1.3,4.4,1.3
		c1.3,0,3-0.3,4.4-0.8c0.4-0.2,0.7-0.5,0.7-1V35.9c0-2.9-2.3-4.4-5.1-4.4c-1.5,0-2.8,0.4-4.4,1.2c-0.2,0.1-0.3,0.3-0.3,0.5
		c0,0.4,0.3,0.6,0.6,0.6c0.1,0,0.3,0,0.4-0.1c1.2-0.7,2.5-1.1,3.8-1.1c2.1,0,3.8,1.2,3.8,3.6V38.6z M168.6,46.1
		c-1.2,0.4-2.7,0.7-3.8,0.7c-1.6,0-2.8-0.4-3.5-1c-0.6-0.5-0.9-1.4-0.9-2.5c0-1.1,0.3-2,0.9-2.5c0.7-0.7,1.9-1,3.5-1h3.8V46.1z
		 M34,55.7c0,0.7,0.2,1.4,0.7,1.8c0.4,0.4,1.1,0.7,1.8,0.7c0.5,0,1-0.2,1.5-0.5c0.1-0.1,0.2-0.2,0.2-0.3c0-0.2-0.2-0.4-0.3-0.4
		c-0.1,0-0.1,0-0.2,0.1c-0.4,0.2-0.7,0.4-1.1,0.4c-0.6,0-1-0.2-1.3-0.5c-0.3-0.3-0.5-0.8-0.5-1.3v-2.6c0-0.6,0.2-1,0.5-1.3
		c0.3-0.3,0.8-0.5,1.3-0.5c0.4,0,0.8,0.1,1.1,0.4c0.1,0,0.1,0.1,0.2,0.1c0.2,0,0.3-0.2,0.3-0.3c0-0.1-0.1-0.2-0.2-0.3
		c-0.5-0.3-1-0.5-1.5-0.5c-0.7,0-1.4,0.2-1.8,0.7c-0.5,0.5-0.7,1.1-0.7,1.8V55.7z M39.5,51.6c0.3,0,0.5-0.2,0.5-0.5
		c0-0.3-0.2-0.5-0.5-0.5c-0.3,0-0.5,0.2-0.5,0.5C39,51.4,39.2,51.6,39.5,51.6z M39.1,57.8c0,0.2,0.2,0.4,0.4,0.4
		c0.2,0,0.4-0.2,0.4-0.4v-4.7c0-0.2-0.2-0.4-0.4-0.4c-0.2,0-0.4,0.2-0.4,0.4V57.8z M44.2,55.7c0.3,0,0.5-0.2,0.5-0.5v-0.5
		c0-1.1-0.8-1.9-1.9-1.9c-1.2,0-1.9,0.8-1.9,1.9v1.6c0,1.1,0.8,1.9,1.9,1.9c0.5,0,1-0.1,1.5-0.3c0.1-0.1,0.2-0.2,0.2-0.3
		c0-0.2-0.2-0.3-0.4-0.3c-0.1,0-0.1,0-0.1,0c-0.4,0.2-0.8,0.3-1.2,0.3c-0.8,0-1.2-0.5-1.2-1.3v-0.6H44.2z M43.6,52
		c0.1,0,0.1,0.1,0.2,0.1c0.2,0,0.3-0.2,0.3-0.3c0-0.1-0.1-0.2-0.2-0.3l-0.9-0.6c-0.1-0.1-0.2-0.1-0.3-0.1c-0.1,0-0.2,0-0.3,0.1
		l-0.9,0.6c-0.1,0.1-0.2,0.2-0.2,0.3c0,0.2,0.2,0.3,0.3,0.3c0.1,0,0.1,0,0.2-0.1l0.8-0.6L43.6,52z M44,55h-2.4v-0.4
		c0-0.8,0.5-1.2,1.2-1.2c0.7,0,1.2,0.4,1.2,1.2V55z M48.8,57.8c0,0.2,0.2,0.4,0.4,0.4c0.2,0,0.4-0.2,0.4-0.4v-3.2
		c0-1.1-0.8-1.9-1.9-1.9c-0.6,0-1.1,0.1-1.6,0.3c-0.2,0.1-0.3,0.3-0.3,0.5v4.4c0,0.2,0.2,0.4,0.4,0.4s0.4-0.2,0.4-0.4v-4.3
		c0.4-0.1,0.8-0.2,1.2-0.2c0.7,0,1.2,0.4,1.2,1.2V57.8z M50.4,56.3c0,1.1,0.8,1.9,1.9,1.9c0.5,0,0.9-0.1,1.4-0.3
		c0.1-0.1,0.2-0.2,0.2-0.3c0-0.2-0.2-0.3-0.4-0.3c-0.1,0-0.1,0-0.2,0c-0.3,0.2-0.7,0.3-1.1,0.3c-0.8,0-1.2-0.4-1.2-1.2v-1.7
		c0-0.8,0.5-1.2,1.2-1.2c0.4,0,0.7,0.1,1.1,0.3c0.1,0,0.1,0,0.2,0c0.2,0,0.4-0.1,0.4-0.3c0-0.1-0.1-0.3-0.2-0.3
		c-0.4-0.2-0.9-0.3-1.4-0.3c-1.2,0-1.9,0.8-1.9,1.9V56.3z M55.1,51.6c0.3,0,0.5-0.2,0.5-0.5c0-0.3-0.2-0.5-0.5-0.5
		c-0.3,0-0.5,0.2-0.5,0.5C54.6,51.4,54.8,51.6,55.1,51.6z M54.7,57.8c0,0.2,0.2,0.4,0.4,0.4c0.2,0,0.4-0.2,0.4-0.4v-4.7
		c0-0.2-0.2-0.4-0.4-0.4c-0.2,0-0.4,0.2-0.4,0.4V57.8z M60.2,54.3c0-1.1-0.8-1.6-1.8-1.6c-0.5,0-1.1,0.1-1.5,0.4
		c-0.1,0.1-0.2,0.2-0.2,0.3c0,0.2,0.2,0.3,0.4,0.3c0.1,0,0.1,0,0.2-0.1c0.4-0.2,0.8-0.4,1.2-0.4c0.7,0,1.1,0.3,1.1,0.9V55h-1.2
		c-0.6,0-1.1,0.1-1.5,0.4c-0.3,0.3-0.5,0.7-0.5,1.2s0.2,0.9,0.5,1.2c0.3,0.3,0.8,0.4,1.5,0.4c0.5,0,1.1-0.1,1.6-0.3
		c0.2-0.1,0.3-0.3,0.3-0.5V54.3z M59.5,57.4c-0.4,0.1-0.8,0.2-1.2,0.2c-1.1,0-1.2-0.5-1.2-1s0.1-0.9,1.2-0.9h1.2V57.4z M63.6,60.1
		c0,0.2,0.2,0.4,0.4,0.4c0.2,0,0.4-0.2,0.4-0.4v-2.2c0.4,0.2,0.8,0.3,1.2,0.3c1.1,0,1.9-0.8,1.9-1.9v-1.6c0-1.1-0.8-1.9-1.9-1.9
		c-0.5,0-1.1,0.1-1.6,0.3c-0.2,0.1-0.3,0.3-0.3,0.5V60.1z M66.8,56.3c0,0.8-0.4,1.2-1.2,1.2c-0.5,0-0.9-0.1-1.2-0.4v-3.5
		c0.4-0.1,0.8-0.2,1.2-0.2c0.7,0,1.2,0.4,1.2,1.2V56.3z M72,54.3c0-1.1-0.8-1.6-1.8-1.6c-0.5,0-1.1,0.1-1.5,0.4
		c-0.1,0.1-0.2,0.2-0.2,0.3c0,0.2,0.2,0.3,0.4,0.3c0.1,0,0.1,0,0.2-0.1c0.4-0.2,0.8-0.4,1.2-0.4c0.7,0,1.1,0.3,1.1,0.9V55h-1.2
		c-0.6,0-1.1,0.1-1.5,0.4c-0.3,0.3-0.5,0.7-0.5,1.2s0.2,0.9,0.5,1.2c0.3,0.3,0.8,0.4,1.5,0.4c0.5,0,1.1-0.1,1.6-0.3
		c0.2-0.1,0.3-0.3,0.3-0.5V54.3z M71.3,57.4c-0.4,0.1-0.8,0.2-1.2,0.2c-1.1,0-1.2-0.5-1.2-1s0.1-0.9,1.2-0.9h1.2V57.4z M73.1,57.8
		c0,0.2,0.2,0.4,0.4,0.4c0.2,0,0.4-0.2,0.4-0.4v-3.7c0-0.5,0.3-0.7,0.7-0.7c0.2,0,0.3,0,0.5,0.1c0.1,0,0.1,0,0.2,0
		c0.2,0,0.4-0.1,0.4-0.3c0-0.2-0.1-0.3-0.3-0.3c-0.3-0.1-0.5-0.1-0.8-0.1c-0.8,0-1.4,0.6-1.4,1.4V57.8z M79.4,54.3
		c0-1.1-0.8-1.6-1.8-1.6c-0.5,0-1.1,0.1-1.5,0.4c-0.1,0.1-0.2,0.2-0.2,0.3c0,0.2,0.2,0.3,0.4,0.3c0.1,0,0.1,0,0.2-0.1
		c0.4-0.2,0.8-0.4,1.2-0.4c0.7,0,1.1,0.3,1.1,0.9V55h-1.2c-0.6,0-1.1,0.1-1.5,0.4c-0.3,0.3-0.5,0.7-0.5,1.2s0.2,0.9,0.5,1.2
		c0.3,0.3,0.8,0.4,1.5,0.4c0.5,0,1.1-0.1,1.6-0.3c0.2-0.1,0.3-0.3,0.3-0.5V54.3z M78.7,57.4c-0.4,0.1-0.8,0.2-1.2,0.2
		c-1.1,0-1.2-0.5-1.2-1s0.1-0.9,1.2-0.9h1.2V57.4z M84.8,54.8c0.6,0.3,1.1,0.7,1.1,1.4c0,0.8-0.5,1.3-1.5,1.3c-0.5,0-1-0.1-1.5-0.4
		c0,0-0.1,0-0.1,0c-0.2,0-0.4,0.2-0.4,0.3c0,0.1,0.1,0.3,0.2,0.3c0.6,0.2,1.2,0.4,1.8,0.4c1.2,0,2.2-0.7,2.2-2c0-1.1-0.7-1.6-1.5-2
		L84,53.6c-0.6-0.3-0.8-0.6-0.8-1.1c0-0.9,0.8-1.2,1.5-1.2c0.6,0,1,0.1,1.4,0.3c0,0,0.1,0,0.1,0c0.2,0,0.4-0.2,0.4-0.3
		c0-0.1-0.1-0.3-0.2-0.3c-0.5-0.2-1-0.3-1.7-0.3c-1.2,0-2.2,0.7-2.2,1.8c0,1,0.5,1.4,1.3,1.8L84.8,54.8z M91,54.3
		c0-1.1-0.8-1.6-1.8-1.6c-0.5,0-1.1,0.1-1.5,0.4c-0.1,0.1-0.2,0.2-0.2,0.3c0,0.2,0.2,0.3,0.4,0.3c0.1,0,0.1,0,0.2-0.1
		c0.4-0.2,0.8-0.4,1.2-0.4c0.7,0,1.1,0.3,1.1,0.9V55h-1.2c-0.6,0-1.1,0.1-1.5,0.4c-0.3,0.3-0.5,0.7-0.5,1.2s0.2,0.9,0.5,1.2
		c0.3,0.3,0.8,0.4,1.5,0.4c0.5,0,1.1-0.1,1.6-0.3c0.2-0.1,0.3-0.3,0.3-0.5V54.3z M90.3,57.4c-0.4,0.1-0.8,0.2-1.2,0.2
		c-1.1,0-1.2-0.5-1.2-1s0.1-0.9,1.2-0.9h1.2V57.4z M95.1,57.4c-0.4,0.1-0.8,0.2-1.2,0.2c-0.8,0-1.2-0.4-1.2-1.2v-3.2
		c0-0.2-0.2-0.4-0.4-0.4c-0.2,0-0.4,0.2-0.4,0.4v3.2c0,1.2,0.7,1.9,1.9,1.9c0.5,0,1.1-0.1,1.6-0.3c0.2-0.1,0.3-0.3,0.3-0.5v-4.4
		c0-0.2-0.2-0.4-0.4-0.4c-0.2,0-0.4,0.2-0.4,0.4V57.4z M94.9,51.3C95,51.2,95,51.1,95,51c0-0.2-0.1-0.3-0.3-0.3
		c-0.1,0-0.1,0-0.2,0.1l-1.1,0.7c-0.1,0.1-0.2,0.2-0.2,0.3c0,0.2,0.2,0.3,0.3,0.3c0.1,0,0.1,0,0.2-0.1L94.9,51.3z M98.7,58.2
		c0.6,0,1.1-0.1,1.6-0.3c0.2-0.1,0.3-0.3,0.3-0.5V51c0-0.2-0.2-0.4-0.4-0.4c-0.2,0-0.4,0.2-0.4,0.4v2.1c-0.4-0.2-0.8-0.3-1.2-0.3
		c-1.2,0-1.9,0.8-1.9,1.9v1.6C96.8,57.4,97.6,58.2,98.7,58.2z M97.5,54.6c0-0.8,0.4-1.2,1.2-1.2c0.4,0,0.9,0.1,1.2,0.4v3.5
		c-0.4,0.1-0.8,0.2-1.2,0.2c-0.7,0-1.2-0.4-1.2-1.2V54.6z M104.9,55.7c0.3,0,0.5-0.2,0.5-0.5v-0.5c0-1.1-0.8-1.9-1.9-1.9
		c-1.2,0-1.9,0.8-1.9,1.9v1.6c0,1.1,0.8,1.9,1.9,1.9c0.5,0,1-0.1,1.5-0.3c0.1-0.1,0.2-0.2,0.2-0.3c0-0.2-0.2-0.3-0.4-0.3
		c-0.1,0-0.1,0-0.1,0c-0.4,0.2-0.8,0.3-1.2,0.3c-0.8,0-1.2-0.5-1.2-1.3v-0.6H104.9z M104.7,55h-2.4v-0.4c0-0.8,0.5-1.2,1.2-1.2
		c0.7,0,1.2,0.4,1.2,1.2V55z M111.8,55.7c0.3,0,0.5-0.2,0.5-0.5v-0.5c0-1.1-0.8-1.9-1.9-1.9c-1.2,0-1.9,0.8-1.9,1.9v1.6
		c0,1.1,0.8,1.9,1.9,1.9c0.5,0,1-0.1,1.5-0.3c0.1-0.1,0.2-0.2,0.2-0.3c0-0.2-0.2-0.3-0.4-0.3c-0.1,0-0.1,0-0.1,0
		c-0.4,0.2-0.8,0.3-1.2,0.3c-0.8,0-1.2-0.5-1.2-1.3v-0.6H111.8z M111.6,55h-2.4v-0.4c0-0.8,0.5-1.2,1.2-1.2c0.7,0,1.2,0.4,1.2,1.2
		V55z M117.8,58.1c1.3,0,2.1-0.8,2.1-2.1c0-0.8-0.4-1.4-1.1-1.8c0.5-0.4,0.8-0.9,0.8-1.5c0-1.2-0.8-1.9-2-1.9h-1.6
		c-0.3,0-0.5,0.2-0.5,0.5v6.4c0,0.3,0.2,0.5,0.5,0.5H117.8z M116.3,53.9v-2.5h1.4c0.8,0,1.2,0.5,1.2,1.2c0,0.7-0.6,1.2-1.4,1.2
		H116.3z M116.3,57.4v-2.8h1.3c0.9,0,1.5,0.6,1.5,1.4c0,0.9-0.6,1.4-1.4,1.4H116.3z M124,55.7c0.3,0,0.5-0.2,0.5-0.5v-0.5
		c0-1.1-0.8-1.9-1.9-1.9c-1.2,0-1.9,0.8-1.9,1.9v1.6c0,1.1,0.8,1.9,1.9,1.9c0.5,0,1-0.1,1.5-0.3c0.1-0.1,0.2-0.2,0.2-0.3
		c0-0.2-0.2-0.3-0.4-0.3c-0.1,0-0.1,0-0.1,0c-0.4,0.2-0.8,0.3-1.2,0.3c-0.8,0-1.2-0.5-1.2-1.3v-0.6H124z M123.7,55h-2.4v-0.4
		c0-0.8,0.5-1.2,1.2-1.2c0.7,0,1.2,0.4,1.2,1.2V55z M125.5,57.8c0,0.2,0.2,0.4,0.4,0.4c0.2,0,0.4-0.2,0.4-0.4V51
		c0-0.2-0.2-0.4-0.4-0.4c-0.2,0-0.4,0.2-0.4,0.4V57.8z M130.5,55.7c0.3,0,0.5-0.2,0.5-0.5v-0.5c0-1.1-0.8-1.9-1.9-1.9
		c-1.2,0-1.9,0.8-1.9,1.9v1.6c0,1.1,0.8,1.9,1.9,1.9c0.5,0,1-0.1,1.5-0.3c0.1-0.1,0.2-0.2,0.2-0.3c0-0.2-0.2-0.3-0.4-0.3
		c-0.1,0-0.1,0-0.1,0c-0.4,0.2-0.8,0.3-1.2,0.3c-0.8,0-1.2-0.5-1.2-1.3v-0.6H130.5z M130.3,55h-2.4v-0.4c0-0.8,0.5-1.2,1.2-1.2
		c0.7,0,1.2,0.4,1.2,1.2V55z M135,58.1c0.2,0,0.4-0.1,0.4-0.3c0-0.2-0.2-0.3-0.4-0.3h-2.6l2.8-3.9c0.1-0.1,0.1-0.2,0.1-0.2
		c0-0.2-0.2-0.4-0.4-0.4h-3c-0.2,0-0.4,0.1-0.4,0.3s0.2,0.3,0.4,0.3h2.5l-2.8,3.9c-0.1,0.1-0.1,0.2-0.1,0.3c0,0.2,0.2,0.4,0.4,0.4
		H135z M139.6,54.3c0-1.1-0.8-1.6-1.8-1.6c-0.5,0-1.1,0.1-1.5,0.4c-0.1,0.1-0.2,0.2-0.2,0.3c0,0.2,0.2,0.3,0.4,0.3
		c0.1,0,0.1,0,0.2-0.1c0.4-0.2,0.8-0.4,1.2-0.4c0.7,0,1.1,0.3,1.1,0.9V55h-1.2c-0.6,0-1.1,0.1-1.5,0.4c-0.3,0.3-0.5,0.7-0.5,1.2
		s0.2,0.9,0.5,1.2c0.3,0.3,0.8,0.4,1.5,0.4c0.5,0,1.1-0.1,1.6-0.3c0.2-0.1,0.3-0.3,0.3-0.5V54.3z M138.9,57.4
		c-0.4,0.1-0.8,0.2-1.2,0.2c-1.1,0-1.2-0.5-1.2-1s0.1-0.9,1.2-0.9h1.2V57.4z M144.7,58.2c0.6,0,1.1-0.1,1.6-0.3
		c0.2-0.1,0.3-0.3,0.3-0.5V51c0-0.2-0.2-0.4-0.4-0.4c-0.2,0-0.4,0.2-0.4,0.4v2.1c-0.4-0.2-0.8-0.3-1.2-0.3c-1.2,0-1.9,0.8-1.9,1.9
		v1.6C142.8,57.4,143.6,58.2,144.7,58.2z M143.5,54.6c0-0.8,0.4-1.2,1.2-1.2c0.4,0,0.9,0.1,1.2,0.4v3.5c-0.4,0.1-0.8,0.2-1.2,0.2
		c-0.7,0-1.2-0.4-1.2-1.2V54.6z M151.3,54.3c0-1.1-0.8-1.6-1.8-1.6c-0.5,0-1.1,0.1-1.5,0.4c-0.1,0.1-0.2,0.2-0.2,0.3
		c0,0.2,0.2,0.3,0.4,0.3c0.1,0,0.1,0,0.2-0.1c0.4-0.2,0.8-0.4,1.2-0.4c0.7,0,1.1,0.3,1.1,0.9V55h-1.2c-0.6,0-1.1,0.1-1.5,0.4
		c-0.3,0.3-0.5,0.7-0.5,1.2s0.2,0.9,0.5,1.2c0.3,0.3,0.8,0.4,1.5,0.4c0.5,0,1.1-0.1,1.6-0.3c0.2-0.1,0.3-0.3,0.3-0.5V54.3z
		 M150.6,57.4c-0.4,0.1-0.8,0.2-1.2,0.2c-1.1,0-1.2-0.5-1.2-1s0.1-0.9,1.2-0.9h1.2V57.4z M154.8,57.8c0,0.2,0.2,0.4,0.4,0.4
		c0.2,0,0.4-0.2,0.4-0.4V55h1.4c0.6,0,1.2-0.2,1.6-0.6c0.4-0.4,0.6-0.9,0.6-1.5c0-0.6-0.2-1.2-0.6-1.6c-0.4-0.4-0.9-0.6-1.5-0.6
		h-1.7c-0.3,0-0.5,0.2-0.5,0.5V57.8z M155.5,54.3v-2.8h1.4c0.4,0,0.8,0.1,1,0.4s0.4,0.6,0.4,1.1c0,0.4-0.1,0.8-0.4,1
		c-0.3,0.2-0.6,0.4-1.1,0.4H155.5z M162.8,55.7c0.3,0,0.5-0.2,0.5-0.5v-0.5c0-1.1-0.8-1.9-1.9-1.9c-1.2,0-1.9,0.8-1.9,1.9v1.6
		c0,1.1,0.8,1.9,1.9,1.9c0.5,0,1-0.1,1.5-0.3c0.1-0.1,0.2-0.2,0.2-0.3c0-0.2-0.2-0.3-0.4-0.3c-0.1,0-0.1,0-0.1,0
		c-0.4,0.2-0.8,0.3-1.2,0.3c-0.8,0-1.2-0.5-1.2-1.3v-0.6H162.8z M162.6,55h-2.4v-0.4c0-0.8,0.5-1.2,1.2-1.2c0.7,0,1.2,0.4,1.2,1.2
		V55z M164.3,57.8c0,0.2,0.2,0.4,0.4,0.4s0.4-0.2,0.4-0.4V51c0-0.2-0.2-0.4-0.4-0.4s-0.4,0.2-0.4,0.4V57.8z M169.4,55.7
		c0.3,0,0.5-0.2,0.5-0.5v-0.5c0-1.1-0.8-1.9-1.9-1.9c-1.2,0-1.9,0.8-1.9,1.9v1.6c0,1.1,0.8,1.9,1.9,1.9c0.5,0,1-0.1,1.5-0.3
		c0.1-0.1,0.2-0.2,0.2-0.3c0-0.2-0.2-0.3-0.4-0.3c-0.1,0-0.1,0-0.1,0c-0.4,0.2-0.8,0.3-1.2,0.3c-0.8,0-1.2-0.5-1.2-1.3v-0.6H169.4z
		 M169.2,55h-2.4v-0.4c0-0.8,0.5-1.2,1.2-1.2c0.7,0,1.2,0.4,1.2,1.2V55z"/>
</g>
</svg>
